# xmcd
#
# Track frame offsets: 
#        150
#        18306
#        44682
#        61098
#        78556
#        92491
#        111359
#        123470
#
# Disc length: 1878 seconds
#
# Revision: 0
# Processed by: cddbd v1.5.2PL0 Copyright (c) Steve Scherf et al.
# Submitted via: ExactAudioCopyFreeDBPlugin 1.0
#
DISCID=63075408
DTITLE=Eric Roberson - Fire
DYEAR=2017
DGENRE=R&B
TTITLE0=Slave Owners (feat. Dayne Jordan)
TTITLE1=Keep On
TTITLE2=More Than Stars
TTITLE3=Tamir
TTITLE4=Everything
TTITLE5=Show That
TTITLE6=Love is All That Matter
TTITLE7=Leave the Door Open
EXTD=
EXTT0=
EXTT1=
EXTT2=
EXTT3=
EXTT4=
EXTT5=
EXTT6=
EXTT7=
PLAYORDER=
